<svg id="Layer_1" data-name="Layer 1" xmlns="http://www.w3.org/2000/svg" viewBox="0 0 1000 1000"><defs><style>.cls-1,.cls-3{fill:#af27ff;}.cls-1{fill-rule:evenodd;}.cls-2{fill:#fc4a7c;}</style></defs><path class="cls-1" d="M214.94,538.91a17.77,17.77,0,0,1-31.32,1l-35.84-62.06a17.78,17.78,0,1,1,30.77-17.82L199,495.52l15.36,26.6A17.76,17.76,0,0,1,214.94,538.91Z"/><circle class="cls-2" cx="234.78" cy="469.09" r="17.89" transform="translate(-67.66 40.49) rotate(-8.62)"/><polygon points="348.61 462.38 319.44 531.9 306.76 531.9 277.59 462.38 293.07 462.38 313.11 511.43 333.14 462.38 348.61 462.38"/><path d="M371.16,465.54a7.39,7.39,0,0,1-.65,3,7.84,7.84,0,0,1-1.78,2.5,8.57,8.57,0,0,1-2.79,1.67,10.08,10.08,0,0,1-3.48.58,9.64,9.64,0,0,1-3.45-.59,8.4,8.4,0,0,1-2.7-1.66,7.68,7.68,0,0,1-1.8-2.5,7.38,7.38,0,0,1-.64-3,7.51,7.51,0,0,1,.64-3.07,7.7,7.7,0,0,1,1.76-2.47,8.12,8.12,0,0,1,2.72-1.7,9.81,9.81,0,0,1,3.47-.62,10,10,0,0,1,3.5.62,8.52,8.52,0,0,1,2.77,1.68,7.91,7.91,0,0,1,1.78,2.49A7.52,7.52,0,0,1,371.16,465.54Z"/><rect x="355.21" y="478.78" width="14.37" height="53.11"/><polygon points="435.18 478.77 412.58 531.9 400.2 531.9 377.7 478.77 393.03 478.77 406.39 511.89 419.75 478.77 435.18 478.77"/><rect x="442.81" y="478.78" width="14.37" height="53.11"/><path d="M458.78,465.54a7.4,7.4,0,0,1-.66,3,7.51,7.51,0,0,1-1.79,2.5,8.43,8.43,0,0,1-2.79,1.67,10,10,0,0,1-3.47.58,9.64,9.64,0,0,1-3.45-.59,8.48,8.48,0,0,1-2.7-1.66,7.6,7.6,0,0,1-1.8-2.5,7.39,7.39,0,0,1-.65-3,7.52,7.52,0,0,1,.65-3.07,7.7,7.7,0,0,1,1.76-2.47,8,8,0,0,1,2.73-1.7,9.63,9.63,0,0,1,3.46-.62,10,10,0,0,1,3.5.62,8.5,8.5,0,0,1,2.76,1.68,7.59,7.59,0,0,1,2.45,5.56Z"/><path d="M513.18,460v22.4a30,30,0,0,0-5.78-3.29,25.65,25.65,0,0,0-10.19-1.92,29.41,29.41,0,0,0-11.51,2.21,27,27,0,0,0-8.9,6.06,27.48,27.48,0,0,0-5.69,9,29.72,29.72,0,0,0-2,10.93,29.25,29.25,0,0,0,2,10.92,26.85,26.85,0,0,0,14.73,15,29.56,29.56,0,0,0,11.54,2.21,25.48,25.48,0,0,0,5.68-.63,26.26,26.26,0,0,0,5-1.68,25.08,25.08,0,0,0,4.38-2.47c.67-.49,1.3-1,1.92-1.51l.59,4.71h12.41V460Zm-25.35,56.48a15.17,15.17,0,0,1-3.26-4.9,17,17,0,0,1,0-12.49,14.83,14.83,0,0,1,3.22-4.87,14.49,14.49,0,0,1,4.79-3.16,16.15,16.15,0,0,1,11.87,0,15.33,15.33,0,0,1,4.84,3.17,15,15,0,0,1,3.25,4.85,15.86,15.86,0,0,1,1.2,6.2,16.15,16.15,0,0,1-1.2,6.3,15.25,15.25,0,0,1-3.24,4.88,14.33,14.33,0,0,1-4.79,3.16,15.49,15.49,0,0,1-5.89,1.14,15.68,15.68,0,0,1-6-1.14A14.77,14.77,0,0,1,487.83,516.49Z"/><path class="cls-3" d="M570.84,505.81H552.21v24.95h-8.75v-67.2H572a25.55,25.55,0,0,1,9,1.51,20.37,20.37,0,0,1,7,4.3,19.46,19.46,0,0,1,4.62,6.69,21.83,21.83,0,0,1,1.66,8.65,22.85,22.85,0,0,1-1,7,19.87,19.87,0,0,1-2.91,5.78,19.42,19.42,0,0,1-4.55,4.4,21.11,21.11,0,0,1-5.93,2.84l15.91,26H585.66Zm1-7.66a15.13,15.13,0,0,0,5.46-1,13.2,13.2,0,0,0,4.34-2.72,12.36,12.36,0,0,0,2.9-4.23,15,15,0,0,0,0-11,13,13,0,0,0-2.91-4.28,13.36,13.36,0,0,0-4.4-2.76,15.11,15.11,0,0,0-5.51-1H552.21v26.93Z"/><path class="cls-3" d="M603.55,505.56a26.19,26.19,0,0,1,7.83-18.87A27,27,0,0,1,620.1,481a29.84,29.84,0,0,1,21.84,0,27,27,0,0,1,8.72,5.69,26.42,26.42,0,0,1,5.79,8.47,26,26,0,0,1,2.1,10.4v1.14h0l-.15,1.43H612a18.25,18.25,0,0,0,2.22,7,20.18,20.18,0,0,0,4.38,5.33,18.65,18.65,0,0,0,5.85,3.41,19.75,19.75,0,0,0,11.74.55,18.36,18.36,0,0,0,4.44-1.83,17.43,17.43,0,0,0,3.69-2.84A17.71,17.71,0,0,0,647,516h9.29a25.35,25.35,0,0,1-3.75,6.3,25.08,25.08,0,0,1-5.64,5.11,29,29,0,0,1-7.26,3.46,29.63,29.63,0,0,1-19.57-.82,27.34,27.34,0,0,1-8.72-5.7,26.09,26.09,0,0,1-7.83-18.83Zm27.52-19.62a19.66,19.66,0,0,0-6.92,1.21,18.6,18.6,0,0,0-9.8,8.38,19.19,19.19,0,0,0-2.25,6.37h37.6a20.15,20.15,0,0,0-2.22-6.35,19,19,0,0,0-4.05-5.06,18.38,18.38,0,0,0-5.59-3.34A18.91,18.91,0,0,0,631.07,485.94Z"/><path class="cls-3" d="M669.07,505.56a27.13,27.13,0,0,1,2-10.4A25.75,25.75,0,0,1,685.18,481,27.71,27.71,0,0,1,696,478.93a26.91,26.91,0,0,1,6.23.71,26.64,26.64,0,0,1,5.51,2,25.23,25.23,0,0,1,4.62,2.94,25,25,0,0,1,3.65,3.61l.6-7.81h7.46v50.4h-7.46L716,523a24.23,24.23,0,0,1-3.68,3.61,25.74,25.74,0,0,1-4.64,2.94,26.83,26.83,0,0,1-5.46,2,26.3,26.3,0,0,1-6.18.71,27.71,27.71,0,0,1-10.82-2.07A25.74,25.74,0,0,1,671.07,516,27.14,27.14,0,0,1,669.07,505.56Zm8.6,0a19.44,19.44,0,0,0,1.48,7.66,18.35,18.35,0,0,0,4.08,6,18.65,18.65,0,0,0,6.07,4,20.07,20.07,0,0,0,14.88,0,18.54,18.54,0,0,0,10.18-10,20.18,20.18,0,0,0,0-15.27,18.71,18.71,0,0,0-4.1-6.05,19.26,19.26,0,0,0-13.52-5.46,19.54,19.54,0,0,0-7.48,1.43,18.34,18.34,0,0,0-6.06,4,19.07,19.07,0,0,0-5.53,13.69Z"/><path class="cls-3" d="M747,505.56a19.42,19.42,0,0,0,1.56,7.93,18,18,0,0,0,4.2,6,18.8,18.8,0,0,0,6,3.81,19.39,19.39,0,0,0,7.12,1.33,19.77,19.77,0,0,0,5.24-.69,18.32,18.32,0,0,0,8.57-5.09,17.31,17.31,0,0,0,2.94-4.15h8.8a24.88,24.88,0,0,1-3.71,7,25.29,25.29,0,0,1-5.73,5.53,27.19,27.19,0,0,1-7.41,3.63,28.41,28.41,0,0,1-8.75,1.31,28.11,28.11,0,0,1-10.92-2.1,27.34,27.34,0,0,1-8.72-5.7,26.49,26.49,0,0,1,0-37.7A27,27,0,0,1,755,481a28.46,28.46,0,0,1,10.92-2.07,29,29,0,0,1,8.72,1.28,27.38,27.38,0,0,1,7.39,3.58,25,25,0,0,1,5.73,5.51,25.82,25.82,0,0,1,3.76,7.07l-8.8.05a17.89,17.89,0,0,0-2.94-4.18,18.24,18.24,0,0,0-3.9-3.13,18.65,18.65,0,0,0-4.67-2,19.77,19.77,0,0,0-5.24-.69,19.54,19.54,0,0,0-7.14,1.33,18.27,18.27,0,0,0-6,3.83,18.55,18.55,0,0,0-4.18,6A19.45,19.45,0,0,0,747,505.56Z"/><path class="cls-3" d="M854.61,530.76H846V503.34a25.85,25.85,0,0,0-1-7.86,12.66,12.66,0,0,0-3-5.21,11.74,11.74,0,0,0-4.94-2.92,22.73,22.73,0,0,0-6.75-.91,17.26,17.26,0,0,0-6.32,1.16,15.27,15.27,0,0,0-8.7,8.52A17.74,17.74,0,0,0,814,503v27.82H805.4V461.19h8.5l0,25.59a22.21,22.21,0,0,1,3.41-3.11,23.44,23.44,0,0,1,4.22-2.49,25.23,25.23,0,0,1,4.9-1.66,23.86,23.86,0,0,1,5.41-.59q11.61,0,17.22,6t5.6,18.18Z"/></svg>